<svg width="320" height="320" viewBox="0 0 320 320" fill="none" xmlns="http://www.w3.org/2000/svg">
<g clip-path="url(#clip0_4983_18010)">
<path d="M274.97 0H45.0296C20.1604 0 0 20.1604 0 45.0296V274.97C0 299.84 20.1604 320 45.0296 320H274.97C299.84 320 320 299.84 320 274.97V45.0296C320 20.1604 299.84 0 274.97 0Z" fill="white"/>
<path d="M135.717 28.9397V32.9741C135.717 34.46 136.921 35.6544 138.407 35.6544H142.441C143.937 35.6544 145.131 34.4506 145.131 32.9647V28.9397C145.121 27.4444 143.918 26.25 142.432 26.25H138.407C136.921 26.25 135.717 27.4538 135.717 28.9397Z" fill="#1400FF"/>
<path d="M153.962 28.9397V32.9741C153.962 34.46 155.165 35.6544 156.651 35.6544H160.686C162.181 35.6544 163.375 34.4506 163.375 32.9647V28.9397C163.366 27.4444 162.162 26.25 160.676 26.25H156.651C155.165 26.25 153.962 27.4538 153.962 28.9397Z" fill="#1400FF"/>
<path d="M181.61 35.6543H175.404C173.638 35.6543 172.206 34.2227 172.206 32.4568V29.4474C172.206 27.6815 173.638 26.2499 175.404 26.2499H181.61V35.6543Z" fill="#1400FF"/>
<path d="M190.733 26.25H181.328V35.6544H190.733V26.25Z" fill="#1400FF"/>
<path d="M199.855 26.25H190.451V35.6544H199.855V26.25Z" fill="#1400FF"/>
<path d="M199.573 35.6543V29.4474C199.573 27.6815 201.004 26.2499 202.77 26.2499H205.78C207.546 26.2499 208.977 27.6815 208.977 29.4474V35.6543H199.573Z" fill="#1400FF"/>
<path d="M144.839 38.0617V42.0962C144.839 43.5821 146.043 44.7765 147.529 44.7765H151.563C153.059 44.7765 154.253 43.5727 154.253 42.0868V38.0617C154.244 36.5664 153.04 35.3721 151.554 35.3721H147.529C146.043 35.3721 144.839 36.5758 144.839 38.0617Z" fill="#1400FF"/>
<path d="M163.084 38.0617V42.0962C163.084 43.5821 164.288 44.7765 165.774 44.7765H169.808C171.303 44.7765 172.498 43.5727 172.498 42.0868V38.0617C172.488 36.5664 171.284 35.3721 169.799 35.3721H165.774C164.288 35.3721 163.084 36.5758 163.084 38.0617Z" fill="#1400FF"/>
<path d="M190.733 35.3721V44.7765H184.526C182.76 44.7765 181.328 43.3449 181.328 41.579V35.3721H190.733Z" fill="#1400FF"/>
<path d="M190.451 35.3721H199.855V41.579C199.855 43.3449 198.423 44.7765 196.658 44.7765H190.451V35.3721Z" fill="#1400FF"/>
<path d="M208.695 44.7764V38.5695C208.695 36.8035 210.127 35.372 211.893 35.372H214.902C216.668 35.372 218.1 36.8035 218.1 38.5695V44.7764H208.695Z" fill="#1400FF"/>
<path d="M99.2281 53.8984V47.6915C99.2281 45.9256 100.66 44.494 102.426 44.494H105.435C107.201 44.494 108.632 45.9256 108.632 47.6915V53.8984H99.2281Z" fill="#1400FF"/>
<path d="M135.999 53.8984H129.792C128.026 53.8984 126.595 52.4669 126.595 50.7009V47.6915C126.595 45.9256 128.026 44.494 129.792 44.494H135.999V53.8984Z" fill="#1400FF"/>
<path d="M135.717 53.8984V44.494H141.924C143.69 44.494 145.121 45.9256 145.121 47.6915V53.8984H135.717Z" fill="#1400FF"/>
<path d="M153.962 47.1838V51.2183C153.962 52.7042 155.165 53.8985 156.651 53.8985H160.686C162.181 53.8985 163.375 52.6948 163.375 51.2089V47.1838C163.366 45.6885 162.162 44.4941 160.676 44.4941H156.651C155.165 44.4941 153.962 45.6979 153.962 47.1838Z" fill="#1400FF"/>
<path d="M206.109 53.7105V53.8986H208.977V51.0303H208.789C208.789 52.5162 207.585 53.7105 206.109 53.7105Z" fill="#1400FF"/>
<path d="M218.1 44.4941H208.695V53.8985H218.1V44.4941Z" fill="#1400FF"/>
<path d="M108.632 53.6172V59.8241C108.632 61.59 107.201 63.0216 105.435 63.0216H102.426C100.66 63.0216 99.2281 61.59 99.2281 59.8241V53.6172H108.632Z" fill="#1400FF"/>
<path d="M145.121 53.6172H135.717V63.0216H145.121V53.6172Z" fill="#1400FF"/>
<path d="M144.839 63.0215V56.8146C144.839 55.0487 146.271 53.6171 148.037 53.6171H151.046C152.812 53.6171 154.244 55.0487 154.244 56.8146V63.0215H144.839Z" fill="#1400FF"/>
<path d="M172.488 63.0215H166.281C164.515 63.0215 163.084 61.5899 163.084 59.824V56.8146C163.084 55.0487 164.515 53.6171 166.281 53.6171H172.488V63.0215Z" fill="#1400FF"/>
<path d="M181.61 53.6172H172.206V63.0216H181.61V53.6172Z" fill="#1400FF"/>
<path d="M181.328 63.0215V53.6171H187.535C189.301 53.6171 190.733 55.0487 190.733 56.8146V63.0215H181.328Z" fill="#1400FF"/>
<path d="M196.987 62.8326V63.0207H199.855V60.1523H199.667C199.667 61.6382 198.463 62.8326 196.987 62.8326Z" fill="#1400FF"/>
<path d="M208.977 63.0215H199.573V56.8146C199.573 55.0487 201.004 53.6171 202.77 53.6171H208.977V63.0215Z" fill="#1400FF"/>
<path d="M208.695 53.6172H218.1V59.8241C218.1 61.59 216.668 63.0216 214.902 63.0216H208.695V53.6172Z" fill="#1400FF"/>
<path d="M108.35 65.4289V69.4634C108.35 70.9493 109.554 72.1436 111.04 72.1436H115.074C116.57 72.1436 117.764 70.9399 117.764 69.454V65.4289C117.755 63.9336 116.551 62.7393 115.065 62.7393H111.04C109.554 62.7393 108.35 63.943 108.35 65.4289Z" fill="#1400FF"/>
<path d="M133.131 71.9556V72.1437H135.999V69.2754H135.811C135.811 70.7613 134.607 71.9556 133.131 71.9556Z" fill="#1400FF"/>
<path d="M145.121 62.7393H135.717V72.1436H145.121V62.7393Z" fill="#1400FF"/>
<path d="M181.61 62.7393V72.1436H175.404C173.638 72.1436 172.206 70.7121 172.206 68.9462V62.7393H181.61Z" fill="#1400FF"/>
<path d="M190.733 62.7393H181.328V72.1436H190.733V62.7393Z" fill="#1400FF"/>
<path d="M199.855 62.7393H190.451V72.1436H199.855V62.7393Z" fill="#1400FF"/>
<path d="M199.573 62.7393H208.977V68.9462C208.977 70.7121 207.546 72.1436 205.78 72.1436H199.573V62.7393Z" fill="#1400FF"/>
<path d="M135.999 81.2656H129.792C128.026 81.2656 126.595 79.8341 126.595 78.0681V75.0587C126.595 73.2928 128.026 71.8612 129.792 71.8612H135.999V81.2656Z" fill="#1400FF"/>
<path d="M145.121 71.8613H135.717V81.2657H145.121V71.8613Z" fill="#1400FF"/>
<path d="M154.244 71.8613H144.839V81.2657H154.244V71.8613Z" fill="#1400FF"/>
<path d="M153.962 81.2656V71.8612H160.169C161.934 71.8612 163.366 73.2928 163.366 75.0587V81.2656H153.962Z" fill="#1400FF"/>
<path d="M190.733 71.8613V81.2657H184.526C182.76 81.2657 181.328 79.8342 181.328 78.0682V71.8613H190.733Z" fill="#1400FF"/>
<path d="M199.855 71.8613H190.451V81.2657H199.855V71.8613Z" fill="#1400FF"/>
<path d="M99.2281 83.6731V87.7075C99.2281 89.1934 100.432 90.3878 101.918 90.3878H105.952C107.447 90.3878 108.642 89.184 108.642 87.6981V83.6731C108.632 82.1778 107.429 80.9834 105.943 80.9834H101.918C100.432 80.9834 99.2281 82.1872 99.2281 83.6731Z" fill="#1400FF"/>
<path d="M117.473 90.3877V84.1808C117.473 82.4149 118.904 80.9833 120.67 80.9833H123.679C125.445 80.9833 126.877 82.4149 126.877 84.1808V90.3877H117.473Z" fill="#1400FF"/>
<path d="M145.121 80.9834V87.1903C145.121 88.9562 143.69 90.3878 141.924 90.3878H138.915C137.149 90.3878 135.717 88.9562 135.717 87.1903V80.9834H145.121Z" fill="#1400FF"/>
<path d="M163.366 80.9834H153.962V90.3878H163.366V80.9834Z" fill="#1400FF"/>
<path d="M172.206 83.6731V87.7075C172.206 89.1934 173.41 90.3878 174.896 90.3878H178.93C180.426 90.3878 181.62 89.184 181.62 87.6981V83.6731C181.61 82.1778 180.407 80.9834 178.921 80.9834H174.896C173.41 80.9834 172.206 82.1872 172.206 83.6731Z" fill="#1400FF"/>
<path d="M199.855 80.9834V87.1903C199.855 88.9562 198.423 90.3878 196.658 90.3878H193.648C191.882 90.3878 190.451 88.9562 190.451 87.1903V80.9834H199.855Z" fill="#1400FF"/>
<path d="M208.695 83.6731V87.7075C208.695 89.1934 209.899 90.3878 211.385 90.3878H215.419C216.915 90.3878 218.109 89.184 218.109 87.6981V83.6731C218.1 82.1778 216.896 80.9834 215.41 80.9834H211.385C209.899 80.9834 208.695 82.1872 208.695 83.6731Z" fill="#1400FF"/>
<path d="M126.877 90.1055V96.3124C126.877 98.0783 125.445 99.5099 123.679 99.5099H120.67C118.904 99.5099 117.473 98.0783 117.473 96.3124V90.1055H126.877Z" fill="#1400FF"/>
<path d="M154.244 99.5098H148.037C146.271 99.5098 144.839 98.0782 144.839 96.3123V93.3029C144.839 91.5369 146.271 90.1054 148.037 90.1054H154.244V99.5098Z" fill="#1400FF"/>
<path d="M153.962 90.1055H163.366V96.3124C163.366 98.0783 161.934 99.5099 160.169 99.5099H153.962V90.1055Z" fill="#1400FF"/>
<path d="M199.573 92.7951V96.8296C199.573 98.3155 200.777 99.5099 202.263 99.5099H206.297C207.792 99.5099 208.987 98.3061 208.987 96.8202V92.7951C208.977 91.2998 207.774 90.1055 206.288 90.1055H202.263C200.777 90.1055 199.573 91.3092 199.573 92.7951Z" fill="#1400FF"/>
<path d="M51.0306 108.444V108.632H53.8989V105.764H53.7108C53.7108 107.25 52.5071 108.444 51.0306 108.444Z" fill="#1400FF"/>
<path d="M63.0211 108.633H53.6168V102.426C53.6168 100.66 55.0483 99.2284 56.8143 99.2284H63.0211V108.633Z" fill="#1400FF"/>
<path d="M62.739 108.633V102.426C62.739 100.66 64.1706 99.2284 65.9365 99.2284H68.9459C70.7118 99.2284 72.1434 100.66 72.1434 102.426V108.633H62.739Z" fill="#1400FF"/>
<path d="M90.3879 108.633H84.181C82.4151 108.633 80.9836 107.201 80.9836 105.435V102.426C80.9836 100.66 82.4151 99.2284 84.181 99.2284H90.3879V108.633Z" fill="#1400FF"/>
<path d="M90.1058 108.633V102.426C90.1058 100.66 91.5374 99.2284 93.3033 99.2284H96.3127C98.0786 99.2284 99.5102 100.66 99.5102 102.426V108.633H90.1058Z" fill="#1400FF"/>
<path d="M124.009 108.444V108.632H126.877V105.764H126.689C126.689 107.25 125.485 108.444 124.009 108.444Z" fill="#1400FF"/>
<path d="M126.595 108.633V102.426C126.595 100.66 128.026 99.2284 129.792 99.2284H132.802C134.568 99.2284 135.999 100.66 135.999 102.426V108.633H126.595Z" fill="#1400FF"/>
<path d="M172.206 108.633V102.426C172.206 100.66 173.638 99.2284 175.404 99.2284H178.413C180.179 99.2284 181.61 100.66 181.61 102.426V108.633H172.206Z" fill="#1400FF"/>
<path d="M190.451 101.918V105.953C190.451 107.439 191.654 108.633 193.14 108.633H197.175C198.67 108.633 199.864 107.429 199.864 105.943V101.918C199.855 100.423 198.651 99.2285 197.165 99.2285H193.14C191.654 99.2285 190.451 100.432 190.451 101.918Z" fill="#1400FF"/>
<path d="M263.711 108.633H257.504C255.738 108.633 254.306 107.201 254.306 105.435V102.426C254.306 100.66 255.738 99.2284 257.504 99.2284H263.711V108.633Z" fill="#1400FF"/>
<path d="M263.429 108.633V99.2284H269.636C271.402 99.2284 272.833 100.66 272.833 102.426V108.633H263.429Z" fill="#1400FF"/>
<path d="M32.786 117.567V117.755H35.6544V114.887H35.4663C35.4663 116.373 34.2625 117.567 32.786 117.567Z" fill="#1400FF"/>
<path d="M44.7766 117.755H35.3723V111.548C35.3723 109.782 36.8038 108.35 38.5697 108.35H44.7766V117.755Z" fill="#1400FF"/>
<path d="M53.8989 108.351H44.4945V117.755H53.8989V108.351Z" fill="#1400FF"/>
<path d="M63.0211 108.351H53.6168V117.755H63.0211V108.351Z" fill="#1400FF"/>
<path d="M71.8613 111.04V115.075C71.8613 116.561 73.0651 117.755 74.551 117.755H78.5854C80.0807 117.755 81.2751 116.551 81.2751 115.065V111.04C81.2657 109.545 80.0619 108.351 78.576 108.351H74.551C73.0651 108.351 71.8613 109.554 71.8613 111.04Z" fill="#1400FF"/>
<path d="M96.6418 117.567V117.755H99.5102V114.887H99.3221C99.3221 116.373 98.1183 117.567 96.6418 117.567Z" fill="#1400FF"/>
<path d="M108.632 117.755H99.2281V111.548C99.2281 109.782 100.66 108.35 102.426 108.35H108.632V117.755Z" fill="#1400FF"/>
<path d="M117.755 108.351H108.35V117.755H117.755V108.351Z" fill="#1400FF"/>
<path d="M126.877 108.351H117.473V117.755H126.877V108.351Z" fill="#1400FF"/>
<path d="M126.595 108.351H135.999V114.557C135.999 116.323 134.568 117.755 132.802 117.755H126.595V108.351Z" fill="#1400FF"/>
<path d="M181.61 108.351V114.557C181.61 116.323 180.179 117.755 178.413 117.755H175.404C173.638 117.755 172.206 116.323 172.206 114.557V108.351H181.61Z" fill="#1400FF"/>
<path d="M218.1 117.755H208.695V111.548C208.695 109.782 210.127 108.35 211.893 108.35H218.1V117.755Z" fill="#1400FF"/>
<path d="M217.817 117.755V108.35H224.024C225.79 108.35 227.222 109.782 227.222 111.548V117.755H217.817Z" fill="#1400FF"/>
<path d="M245.466 117.755H239.259C237.493 117.755 236.062 116.323 236.062 114.557V111.548C236.062 109.782 237.493 108.35 239.259 108.35H245.466V117.755Z" fill="#1400FF"/>
<path d="M245.184 117.755V111.548C245.184 109.782 246.616 108.35 248.382 108.35H251.391C253.157 108.35 254.589 109.782 254.589 111.548V117.755H245.184Z" fill="#1400FF"/>
<path d="M272.833 108.351V117.755H266.626C264.86 117.755 263.429 116.323 263.429 114.557V108.351H272.833Z" fill="#1400FF"/>
<path d="M272.551 117.755V111.548C272.551 109.782 273.983 108.35 275.748 108.35H278.758C280.524 108.35 281.955 109.782 281.955 111.548V117.755H272.551Z" fill="#1400FF"/>
<path d="M35.6544 126.877H26.25V120.67C26.25 118.904 27.6816 117.473 29.4475 117.473H35.6544V126.877Z" fill="#1400FF"/>
<path d="M35.3723 117.473H44.7766V123.68C44.7766 125.445 43.3451 126.877 41.5791 126.877H35.3723V117.473Z" fill="#1400FF"/>
<path d="M63.0211 117.473H53.6168V126.877H63.0211V117.473Z" fill="#1400FF"/>
<path d="M90.3879 126.877H84.181C82.4151 126.877 80.9836 125.445 80.9836 123.679V120.67C80.9836 118.904 82.4151 117.473 84.181 117.473H90.3879V126.877Z" fill="#1400FF"/>
<path d="M99.5102 117.473H90.1058V126.877H99.5102V117.473Z" fill="#1400FF"/>
<path d="M108.632 117.473H99.2281V126.877H108.632V117.473Z" fill="#1400FF"/>
<path d="M117.755 117.473H108.35V126.877H117.755V117.473Z" fill="#1400FF"/>
<path d="M126.877 117.473H117.473V126.877H126.877V117.473Z" fill="#1400FF"/>
<path d="M153.962 120.162V124.197C153.962 125.683 155.165 126.877 156.651 126.877H160.686C162.181 126.877 163.375 125.673 163.375 124.187V120.162C163.366 118.667 162.162 117.473 160.676 117.473H156.651C155.165 117.473 153.962 118.676 153.962 120.162Z" fill="#1400FF"/>
<path d="M218.1 117.473V126.877H211.893C210.127 126.877 208.695 125.445 208.695 123.68V117.473H218.1Z" fill="#1400FF"/>
<path d="M227.222 117.473H217.817V126.877H227.222V117.473Z" fill="#1400FF"/>
<path d="M226.94 126.877V120.67C226.94 118.904 228.371 117.473 230.137 117.473H233.147C234.912 117.473 236.344 118.904 236.344 120.67V126.877H226.94Z" fill="#1400FF"/>
<path d="M35.6544 126.595H26.25V135.999H35.6544V126.595Z" fill="#1400FF"/>
<path d="M53.8989 135.999H47.692C45.9261 135.999 44.4945 134.567 44.4945 132.802V129.792C44.4945 128.026 45.9261 126.595 47.692 126.595H53.8989V135.999Z" fill="#1400FF"/>
<path d="M63.0211 126.595H53.6168V135.999H63.0211V126.595Z" fill="#1400FF"/>
<path d="M62.739 135.999V129.792C62.739 128.026 64.1706 126.595 65.9365 126.595H68.9459C70.7118 126.595 72.1434 128.026 72.1434 129.792V135.999H62.739Z" fill="#1400FF"/>
<path d="M99.5102 126.595V135.999H93.3033C91.5374 135.999 90.1058 134.568 90.1058 132.802V126.595H99.5102Z" fill="#1400FF"/>
<path d="M108.632 126.595H99.2281V135.999H108.632V126.595Z" fill="#1400FF"/>
<path d="M126.877 126.595V135.999H120.67C118.904 135.999 117.473 134.568 117.473 132.802V126.595H126.877Z" fill="#1400FF"/>
<path d="M126.595 135.999V129.792C126.595 128.026 128.026 126.595 129.792 126.595H132.802C134.568 126.595 135.999 128.026 135.999 129.792V135.999H126.595Z" fill="#1400FF"/>
<path d="M172.206 129.284V133.319C172.206 134.805 173.41 135.999 174.896 135.999H178.93C180.426 135.999 181.62 134.795 181.62 133.309V129.284C181.61 127.789 180.407 126.595 178.921 126.595H174.896C173.41 126.595 172.206 127.798 172.206 129.284Z" fill="#1400FF"/>
<path d="M196.987 135.811V135.999H199.855V133.131H199.667C199.667 134.617 198.463 135.811 196.987 135.811Z" fill="#1400FF"/>
<path d="M199.573 135.999V129.792C199.573 128.026 201.004 126.595 202.77 126.595H205.78C207.546 126.595 208.977 128.026 208.977 129.792V135.999H199.573Z" fill="#1400FF"/>
<path d="M245.466 135.999H239.259C237.493 135.999 236.062 134.567 236.062 132.802V129.792C236.062 128.026 237.493 126.595 239.259 126.595H245.466V135.999Z" fill="#1400FF"/>
<path d="M254.589 126.595H245.184V135.999H254.589V126.595Z" fill="#1400FF"/>
<path d="M254.306 135.999V129.792C254.306 128.026 255.738 126.595 257.504 126.595H260.513C262.279 126.595 263.711 128.026 263.711 129.792V135.999H254.306Z" fill="#1400FF"/>
<path d="M281.673 129.284V133.319C281.673 134.805 282.877 135.999 284.363 135.999H288.397C289.893 135.999 291.087 134.795 291.087 133.309V129.284C291.078 127.789 289.874 126.595 288.388 126.595H284.363C282.877 126.595 281.673 127.798 281.673 129.284Z" fill="#1400FF"/>
<path d="M35.6544 135.717H26.25V145.121H35.6544V135.717Z" fill="#1400FF"/>
<path d="M63.0211 135.717V141.924C63.0211 143.69 61.5896 145.121 59.8237 145.121H56.8143C55.0483 145.121 53.6168 143.69 53.6168 141.924V135.717H63.0211Z" fill="#1400FF"/>
<path d="M81.2657 145.121H75.0588C73.2929 145.121 71.8613 143.69 71.8613 141.924V138.914C71.8613 137.148 73.2929 135.717 75.0588 135.717H81.2657V145.121Z" fill="#1400FF"/>
<path d="M80.9836 145.121V138.914C80.9836 137.148 82.4151 135.717 84.181 135.717H87.1904C88.9564 135.717 90.3879 137.148 90.3879 138.914V145.121H80.9836Z" fill="#1400FF"/>
<path d="M108.632 135.717H99.2281V145.121H108.632V135.717Z" fill="#1400FF"/>
<path d="M135.717 145.121V138.914C135.717 137.148 137.149 135.717 138.915 135.717H141.924C143.69 135.717 145.121 137.148 145.121 138.914V145.121H135.717Z" fill="#1400FF"/>
<path d="M153.962 138.406V142.441C153.962 143.927 155.165 145.121 156.651 145.121H160.686C162.181 145.121 163.375 143.917 163.375 142.432V138.406C163.366 136.911 162.162 135.717 160.676 135.717H156.651C155.165 135.717 153.962 136.921 153.962 138.406Z" fill="#1400FF"/>
<path d="M190.733 145.121H184.526C182.76 145.121 181.328 143.69 181.328 141.924V138.914C181.328 137.148 182.76 135.717 184.526 135.717H190.733V145.121Z" fill="#1400FF"/>
<path d="M199.855 135.717H190.451V145.121H199.855V135.717Z" fill="#1400FF"/>
<path d="M208.977 135.717H199.573V145.121H208.977V135.717Z" fill="#1400FF"/>
<path d="M218.1 135.717H208.695V145.121H218.1V135.717Z" fill="#1400FF"/>
<path d="M227.222 135.717H217.817V145.121H227.222V135.717Z" fill="#1400FF"/>
<path d="M226.94 145.121V135.717H233.147C234.912 135.717 236.344 137.148 236.344 138.914V145.121H226.94Z" fill="#1400FF"/>
<path d="M269.965 144.933V145.121H272.833V142.253H272.645C272.645 143.739 271.441 144.933 269.965 144.933Z" fill="#1400FF"/>
<path d="M272.551 145.121V138.914C272.551 137.148 273.983 135.717 275.748 135.717H278.758C280.524 135.717 281.955 137.148 281.955 138.914V145.121H272.551Z" fill="#1400FF"/>
<path d="M35.6544 144.839H26.25V154.243H35.6544V144.839Z" fill="#1400FF"/>
<path d="M44.4945 147.529V151.563C44.4945 153.049 45.6983 154.243 47.1842 154.243H51.2186C52.7139 154.243 53.9083 153.039 53.9083 151.554V147.529C53.8989 146.033 52.6951 144.839 51.2092 144.839H47.1842C45.6983 144.839 44.4945 146.043 44.4945 147.529Z" fill="#1400FF"/>
<path d="M99.5102 154.243H93.3033C91.5374 154.243 90.1058 152.812 90.1058 151.046V148.036C90.1058 146.27 91.5374 144.839 93.3033 144.839H99.5102V154.243Z" fill="#1400FF"/>
<path d="M108.632 144.839H99.2281V154.243H108.632V144.839Z" fill="#1400FF"/>
<path d="M145.121 144.839V151.046C145.121 152.812 143.69 154.243 141.924 154.243H138.915C137.149 154.243 135.717 152.812 135.717 151.046V144.839H145.121Z" fill="#1400FF"/>
<path d="M199.855 144.839V151.046C199.855 152.812 198.423 154.243 196.658 154.243H193.648C191.882 154.243 190.451 152.812 190.451 151.046V144.839H199.855Z" fill="#1400FF"/>
<path d="M236.344 144.839H226.94V154.243H236.344V144.839Z" fill="#1400FF"/>
<path d="M245.184 147.529V151.563C245.184 153.049 246.388 154.243 247.874 154.243H251.908C253.404 154.243 254.598 153.039 254.598 151.554V147.529C254.589 146.033 253.385 144.839 251.899 144.839H247.874C246.388 144.839 245.184 146.043 245.184 147.529Z" fill="#1400FF"/>
<path d="M272.833 154.243H266.626C264.86 154.243 263.429 152.812 263.429 151.046V148.036C263.429 146.27 264.86 144.839 266.626 144.839H272.833V154.243Z" fill="#1400FF"/>
<path d="M281.955 144.839H272.551V154.243H281.955V144.839Z" fill="#1400FF"/>
<path d="M281.673 154.243V144.839H287.88C289.646 144.839 291.078 146.27 291.078 148.036V154.243H281.673Z" fill="#1400FF"/>
<path d="M35.6544 153.962V163.366H29.4475C27.6816 163.366 26.25 161.935 26.25 160.169V153.962H35.6544Z" fill="#1400FF"/>
<path d="M35.3723 163.366V157.159C35.3723 155.393 36.8038 153.962 38.5697 153.962H41.5791C43.3451 153.962 44.7766 155.393 44.7766 157.159V163.366H35.3723Z" fill="#1400FF"/>
<path d="M62.739 156.652V160.686C62.739 162.172 63.9428 163.366 65.4287 163.366H69.4632C70.9584 163.366 72.1528 162.163 72.1528 160.677V156.652C72.1434 155.156 70.9396 153.962 69.4537 153.962H65.4287C63.9428 153.962 62.739 155.166 62.739 156.652Z" fill="#1400FF"/>
<path d="M80.9836 156.652V160.686C80.9836 162.172 82.1873 163.366 83.6732 163.366H87.7077C89.203 163.366 90.3973 162.163 90.3973 160.677V156.652C90.3879 155.156 89.1842 153.962 87.6983 153.962H83.6732C82.1873 153.962 80.9836 155.166 80.9836 156.652Z" fill="#1400FF"/>
<path d="M108.632 153.962H99.2281V163.366H108.632V153.962Z" fill="#1400FF"/>
<path d="M126.877 163.366H120.67C118.904 163.366 117.473 161.935 117.473 160.169V157.159C117.473 155.393 118.904 153.962 120.67 153.962H126.877V163.366Z" fill="#1400FF"/>
<path d="M126.595 163.366V157.159C126.595 155.393 128.026 153.962 129.792 153.962H132.802C134.568 153.962 135.999 155.393 135.999 157.159V163.366H126.595Z" fill="#1400FF"/>
<path d="M151.375 163.178V163.366H154.244V160.498H154.056C154.056 161.984 152.852 163.178 151.375 163.178Z" fill="#1400FF"/>
<path d="M153.962 163.366V157.159C153.962 155.393 155.393 153.962 157.159 153.962H160.169C161.934 153.962 163.366 155.393 163.366 157.159V163.366H153.962Z" fill="#1400FF"/>
<path d="M172.206 156.652V160.686C172.206 162.172 173.41 163.366 174.896 163.366H178.93C180.426 163.366 181.62 162.163 181.62 160.677V156.652C181.61 155.156 180.407 153.962 178.921 153.962H174.896C173.41 153.962 172.206 155.166 172.206 156.652Z" fill="#1400FF"/>
<path d="M208.977 163.366H199.573V157.159C199.573 155.393 201.004 153.962 202.77 153.962H208.977V163.366Z" fill="#1400FF"/>
<path d="M218.1 153.962H208.695V163.366H218.1V153.962Z" fill="#1400FF"/>
<path d="M227.222 153.962H217.817V163.366H227.222V153.962Z" fill="#1400FF"/>
<path d="M236.344 153.962H226.94V163.366H236.344V153.962Z" fill="#1400FF"/>
<path d="M236.062 163.366V157.159C236.062 155.393 237.493 153.962 239.259 153.962H242.269C244.035 153.962 245.466 155.393 245.466 157.159V163.366H236.062Z" fill="#1400FF"/>
<path d="M251.72 163.178V163.366H254.589V160.498H254.4C254.4 161.984 253.197 163.178 251.72 163.178Z" fill="#1400FF"/>
<path d="M254.306 163.366V157.159C254.306 155.393 255.738 153.962 257.504 153.962H260.513C262.279 153.962 263.711 155.393 263.711 157.159V163.366H254.306Z" fill="#1400FF"/>
<path d="M291.078 153.962V160.169C291.078 161.935 289.646 163.366 287.88 163.366H284.871C283.105 163.366 281.673 161.935 281.673 160.169V153.962H291.078Z" fill="#1400FF"/>
<path d="M44.4945 172.488V166.281C44.4945 164.515 45.9261 163.084 47.692 163.084H50.7014C52.4673 163.084 53.8989 164.515 53.8989 166.281V172.488H44.4945Z" fill="#1400FF"/>
<path d="M71.8613 165.774V169.808C71.8613 171.294 73.0651 172.488 74.551 172.488H78.5854C80.0807 172.488 81.2751 171.285 81.2751 169.799V165.774C81.2657 164.278 80.0619 163.084 78.576 163.084H74.551C73.0651 163.084 71.8613 164.288 71.8613 165.774Z" fill="#1400FF"/>
<path d="M87.5196 172.3V172.488H90.3879V169.62H90.1998C90.1998 171.106 88.9961 172.3 87.5196 172.3Z" fill="#1400FF"/>
<path d="M99.5102 172.488H90.1058V166.281C90.1058 164.515 91.5374 163.084 93.3033 163.084H99.5102V172.488Z" fill="#1400FF"/>
<path d="M108.632 163.084H99.2281V172.488H108.632V163.084Z" fill="#1400FF"/>
<path d="M108.35 172.488V163.084H114.557C116.323 163.084 117.755 164.515 117.755 166.281V172.488H108.35Z" fill="#1400FF"/>
<path d="M145.121 172.488H135.717V166.281C135.717 164.515 137.149 163.084 138.915 163.084H145.121V172.488Z" fill="#1400FF"/>
<path d="M154.244 163.084H144.839V172.488H154.244V163.084Z" fill="#1400FF"/>
<path d="M153.962 163.084H163.366V169.291C163.366 171.057 161.934 172.488 160.169 172.488H153.962V163.084Z" fill="#1400FF"/>
<path d="M208.977 163.084V172.488H202.77C201.004 172.488 199.573 171.057 199.573 169.291V163.084H208.977Z" fill="#1400FF"/>
<path d="M208.695 163.084H218.1V169.291C218.1 171.057 216.668 172.488 214.902 172.488H208.695V163.084Z" fill="#1400FF"/>
<path d="M242.598 172.3V172.488H245.466V169.62H245.278C245.278 171.106 244.074 172.3 242.598 172.3Z" fill="#1400FF"/>
<path d="M254.589 172.488H245.184V166.281C245.184 164.515 246.616 163.084 248.382 163.084H254.589V172.488Z" fill="#1400FF"/>
<path d="M263.711 163.084H254.306V172.488H263.711V163.084Z" fill="#1400FF"/>
<path d="M263.429 172.488V166.281C263.429 164.515 264.86 163.084 266.626 163.084H269.636C271.402 163.084 272.833 164.515 272.833 166.281V172.488H263.429Z" fill="#1400FF"/>
<path d="M26.25 181.61V175.403C26.25 173.638 27.6816 172.206 29.4475 172.206H32.4569C34.2228 172.206 35.6544 173.638 35.6544 175.403V181.61H26.25Z" fill="#1400FF"/>
<path d="M53.8989 172.206V181.61H47.692C45.9261 181.61 44.4945 180.179 44.4945 178.413V172.206H53.8989Z" fill="#1400FF"/>
<path d="M63.0211 172.206H53.6168V181.61H63.0211V172.206Z" fill="#1400FF"/>
<path d="M62.739 181.61V172.206H68.9459C70.7118 172.206 72.1434 173.638 72.1434 175.403V181.61H62.739Z" fill="#1400FF"/>
<path d="M90.3879 181.61H84.181C82.4151 181.61 80.9836 180.179 80.9836 178.413V175.403C80.9836 173.638 82.4151 172.206 84.181 172.206H90.3879V181.61Z" fill="#1400FF"/>
<path d="M90.1058 172.206H99.5102V178.413C99.5102 180.179 98.0786 181.61 96.3127 181.61H90.1058V172.206Z" fill="#1400FF"/>
<path d="M117.755 172.206H108.35V181.61H117.755V172.206Z" fill="#1400FF"/>
<path d="M145.121 172.206H135.717V181.61H145.121V172.206Z" fill="#1400FF"/>
<path d="M144.839 172.206H154.244V178.413C154.244 180.179 152.812 181.61 151.046 181.61H144.839V172.206Z" fill="#1400FF"/>
<path d="M172.488 181.61H166.281C164.515 181.61 163.084 180.179 163.084 178.413V175.403C163.084 173.638 164.515 172.206 166.281 172.206H172.488V181.61Z" fill="#1400FF"/>
<path d="M172.206 181.61V172.206H178.413C180.179 172.206 181.61 173.638 181.61 175.403V181.61H172.206Z" fill="#1400FF"/>
<path d="M245.466 181.61H239.259C237.493 181.61 236.062 180.179 236.062 178.413V175.403C236.062 173.638 237.493 172.206 239.259 172.206H245.466V181.61Z" fill="#1400FF"/>
<path d="M254.589 172.206H245.184V181.61H254.589V172.206Z" fill="#1400FF"/>
<path d="M263.711 172.206H254.306V181.61H263.711V172.206Z" fill="#1400FF"/>
<path d="M281.673 174.896V178.93C281.673 180.416 282.877 181.61 284.363 181.61H288.397C289.893 181.61 291.087 180.407 291.087 178.921V174.896C291.078 173.4 289.874 172.206 288.388 172.206H284.363C282.877 172.206 281.673 173.41 281.673 174.896Z" fill="#1400FF"/>
<path d="M35.6544 181.328H26.25V190.733H35.6544V181.328Z" fill="#1400FF"/>
<path d="M35.3723 190.732V181.328H41.5791C43.3451 181.328 44.7766 182.76 44.7766 184.526V190.732H35.3723Z" fill="#1400FF"/>
<path d="M72.1434 181.328V190.733H65.9365C64.1706 190.733 62.739 189.301 62.739 187.535V181.328H72.1434Z" fill="#1400FF"/>
<path d="M71.8613 190.732V184.526C71.8613 182.76 73.2929 181.328 75.0588 181.328H78.0682C79.8341 181.328 81.2657 182.76 81.2657 184.526V190.732H71.8613Z" fill="#1400FF"/>
<path d="M108.632 190.732H102.426C100.66 190.732 99.2281 189.301 99.2281 187.535V184.526C99.2281 182.76 100.66 181.328 102.426 181.328H108.632V190.732Z" fill="#1400FF"/>
<path d="M117.755 181.328H108.35V190.733H117.755V181.328Z" fill="#1400FF"/>
<path d="M117.473 190.732V184.526C117.473 182.76 118.904 181.328 120.67 181.328H123.679C125.445 181.328 126.877 182.76 126.877 184.526V190.732H117.473Z" fill="#1400FF"/>
<path d="M145.121 181.328H135.717V190.733H145.121V181.328Z" fill="#1400FF"/>
<path d="M153.962 190.732V184.526C153.962 182.76 155.393 181.328 157.159 181.328H160.169C161.934 181.328 163.366 182.76 163.366 184.526V190.732H153.962Z" fill="#1400FF"/>
<path d="M181.61 181.328V187.535C181.61 189.301 180.179 190.733 178.413 190.733H175.404C173.638 190.733 172.206 189.301 172.206 187.535V181.328H181.61Z" fill="#1400FF"/>
<path d="M196.987 190.545V190.733H199.855V187.864H199.667C199.667 189.35 198.463 190.545 196.987 190.545Z" fill="#1400FF"/>
<path d="M199.573 190.732V184.526C199.573 182.76 201.004 181.328 202.77 181.328H205.78C207.546 181.328 208.977 182.76 208.977 184.526V190.732H199.573Z" fill="#1400FF"/>
<path d="M254.589 181.328V190.733H248.382C246.616 190.733 245.184 189.301 245.184 187.535V181.328H254.589Z" fill="#1400FF"/>
<path d="M254.306 181.328H263.711V187.535C263.711 189.301 262.279 190.733 260.513 190.733H254.306V181.328Z" fill="#1400FF"/>
<path d="M35.6544 190.45H26.25V199.855H35.6544V190.45Z" fill="#1400FF"/>
<path d="M44.7766 190.45H35.3723V199.855H44.7766V190.45Z" fill="#1400FF"/>
<path d="M44.4945 199.854V193.648C44.4945 191.882 45.9261 190.45 47.692 190.45H50.7014C52.4673 190.45 53.8989 191.882 53.8989 193.648V199.854H44.4945Z" fill="#1400FF"/>
<path d="M90.3879 199.854H84.181C82.4151 199.854 80.9836 198.423 80.9836 196.657V193.648C80.9836 191.882 82.4151 190.45 84.181 190.45H90.3879V199.854Z" fill="#1400FF"/>
<path d="M90.1058 199.854V190.45H96.3127C98.0786 190.45 99.5102 191.882 99.5102 193.648V199.854H90.1058Z" fill="#1400FF"/>
<path d="M145.121 190.45H135.717V199.855H145.121V190.45Z" fill="#1400FF"/>
<path d="M163.366 190.45H153.962V199.855H163.366V190.45Z" fill="#1400FF"/>
<path d="M163.084 199.854V193.648C163.084 191.882 164.515 190.45 166.281 190.45H169.291C171.057 190.45 172.488 191.882 172.488 193.648V199.854H163.084Z" fill="#1400FF"/>
<path d="M190.733 199.854H181.328V193.648C181.328 191.882 182.76 190.45 184.526 190.45H190.733V199.854Z" fill="#1400FF"/>
<path d="M199.855 190.45H190.451V199.855H199.855V190.45Z" fill="#1400FF"/>
<path d="M199.573 190.45H208.977V196.657C208.977 198.423 207.546 199.855 205.78 199.855H199.573V190.45Z" fill="#1400FF"/>
<path d="M260.842 199.667V199.855H263.711V196.986H263.523C263.523 198.472 262.319 199.667 260.842 199.667Z" fill="#1400FF"/>
<path d="M263.429 199.854V193.648C263.429 191.882 264.86 190.45 266.626 190.45H269.636C271.402 190.45 272.833 191.882 272.833 193.648V199.854H263.429Z" fill="#1400FF"/>
<path d="M281.673 199.854V193.648C281.673 191.882 283.105 190.45 284.871 190.45H287.88C289.646 190.45 291.078 191.882 291.078 193.648V199.854H281.673Z" fill="#1400FF"/>
<path d="M35.6544 199.573H26.25V208.978H35.6544V199.573Z" fill="#1400FF"/>
<path d="M44.7766 199.573H35.3723V208.978H44.7766V199.573Z" fill="#1400FF"/>
<path d="M53.6168 208.978V202.771C53.6168 201.005 55.0483 199.573 56.8143 199.573H59.8237C61.5896 199.573 63.0211 201.005 63.0211 202.771V208.978H53.6168Z" fill="#1400FF"/>
<path d="M99.5102 199.573H90.1058V208.978H99.5102V199.573Z" fill="#1400FF"/>
<path d="M117.755 208.978H108.35V202.771C108.35 201.005 109.782 199.573 111.548 199.573H117.755V208.978Z" fill="#1400FF"/>
<path d="M117.473 208.978V199.573H123.679C125.445 199.573 126.877 201.005 126.877 202.771V208.978H117.473Z" fill="#1400FF"/>
<path d="M145.121 199.573V205.78C145.121 207.546 143.69 208.978 141.924 208.978H138.915C137.149 208.978 135.717 207.546 135.717 205.78V199.573H145.121Z" fill="#1400FF"/>
<path d="M151.375 208.79V208.978H154.244V206.109H154.056C154.056 207.595 152.852 208.79 151.375 208.79Z" fill="#1400FF"/>
<path d="M163.366 199.573H153.962V208.978H163.366V199.573Z" fill="#1400FF"/>
<path d="M190.733 199.573V205.78C190.733 207.546 189.301 208.978 187.535 208.978H184.526C182.76 208.978 181.328 207.546 181.328 205.78V199.573H190.733Z" fill="#1400FF"/>
<path d="M215.231 208.79V208.978H218.1V206.109H217.911C217.911 207.595 216.708 208.79 215.231 208.79Z" fill="#1400FF"/>
<path d="M227.222 208.978H217.817V202.771C217.817 201.005 219.249 199.573 221.015 199.573H227.222V208.978Z" fill="#1400FF"/>
<path d="M226.94 208.978V199.573H233.147C234.912 199.573 236.344 201.005 236.344 202.771V208.978H226.94Z" fill="#1400FF"/>
<path d="M242.598 208.79V208.978H245.466V206.109H245.278C245.278 207.595 244.074 208.79 242.598 208.79Z" fill="#1400FF"/>
<path d="M254.589 208.978H245.184V202.771C245.184 201.005 246.616 199.573 248.382 199.573H254.589V208.978Z" fill="#1400FF"/>
<path d="M263.711 199.573H254.306V208.978H263.711V199.573Z" fill="#1400FF"/>
<path d="M272.833 199.573H263.429V208.978H272.833V199.573Z" fill="#1400FF"/>
<path d="M291.078 199.573H281.673V208.978H291.078V199.573Z" fill="#1400FF"/>
<path d="M35.6544 208.695V218.1H29.4475C27.6816 218.1 26.25 216.668 26.25 214.902V208.695H35.6544Z" fill="#1400FF"/>
<path d="M35.3723 208.695H44.7766V214.902C44.7766 216.668 43.3451 218.1 41.5791 218.1H35.3723V208.695Z" fill="#1400FF"/>
<path d="M63.0211 208.695V214.902C63.0211 216.668 61.5896 218.1 59.8237 218.1H56.8143C55.0483 218.1 53.6168 216.668 53.6168 214.902V208.695H63.0211Z" fill="#1400FF"/>
<path d="M81.2657 218.1H75.0588C73.2929 218.1 71.8613 216.668 71.8613 214.902V211.893C71.8613 210.127 73.2929 208.695 75.0588 208.695H81.2657V218.1Z" fill="#1400FF"/>
<path d="M90.3879 208.695H80.9836V218.1H90.3879V208.695Z" fill="#1400FF"/>
<path d="M90.1058 208.695H99.5102V214.902C99.5102 216.668 98.0786 218.1 96.3127 218.1H90.1058V208.695Z" fill="#1400FF"/>
<path d="M117.755 208.695V218.1H111.548C109.782 218.1 108.35 216.668 108.35 214.902V208.695H117.755Z" fill="#1400FF"/>
<path d="M117.473 208.695H126.877V214.902C126.877 216.668 125.445 218.1 123.679 218.1H117.473V208.695Z" fill="#1400FF"/>
<path d="M142.253 217.912V218.1H145.121V215.231H144.933C144.933 216.717 143.73 217.912 142.253 217.912Z" fill="#1400FF"/>
<path d="M154.244 218.1H144.839V211.893C144.839 210.127 146.271 208.695 148.037 208.695H154.244V218.1Z" fill="#1400FF"/>
<path d="M153.962 208.695H163.366V214.902C163.366 216.668 161.934 218.1 160.169 218.1H153.962V208.695Z" fill="#1400FF"/>
<path d="M169.62 217.912V218.1H172.488V215.231H172.3C172.3 216.717 171.096 217.912 169.62 217.912Z" fill="#1400FF"/>
<path d="M172.206 218.1V211.893C172.206 210.127 173.638 208.695 175.404 208.695H178.413C180.179 208.695 181.61 210.127 181.61 211.893V218.1H172.206Z" fill="#1400FF"/>
<path d="M199.855 218.1H193.648C191.882 218.1 190.451 216.668 190.451 214.902V211.893C190.451 210.127 191.882 208.695 193.648 208.695H199.855V218.1Z" fill="#1400FF"/>
<path d="M208.977 208.695H199.573V218.1H208.977V208.695Z" fill="#1400FF"/>
<path d="M218.1 208.695H208.695V218.1H218.1V208.695Z" fill="#1400FF"/>
<path d="M227.222 208.695H217.817V218.1H227.222V208.695Z" fill="#1400FF"/>
<path d="M236.344 208.695H226.94V218.1H236.344V208.695Z" fill="#1400FF"/>
<path d="M245.466 208.695H236.062V218.1H245.466V208.695Z" fill="#1400FF"/>
<path d="M254.589 208.695H245.184V218.1H254.589V208.695Z" fill="#1400FF"/>
<path d="M263.711 208.695H254.306V218.1H263.711V208.695Z" fill="#1400FF"/>
<path d="M272.833 208.695H263.429V218.1H272.833V208.695Z" fill="#1400FF"/>
<path d="M291.078 208.695V214.902C291.078 216.668 289.646 218.1 287.88 218.1H284.871C283.105 218.1 281.673 216.668 281.673 214.902V208.695H291.078Z" fill="#1400FF"/>
<path d="M99.2281 227.222V221.015C99.2281 219.249 100.66 217.817 102.426 217.817H105.435C107.201 217.817 108.632 219.249 108.632 221.015V227.222H99.2281Z" fill="#1400FF"/>
<path d="M145.121 227.222H138.915C137.149 227.222 135.717 225.79 135.717 224.024V221.015C135.717 219.249 137.149 217.817 138.915 217.817H145.121V227.222Z" fill="#1400FF"/>
<path d="M154.244 217.817H144.839V227.222H154.244V217.817Z" fill="#1400FF"/>
<path d="M172.488 227.222H166.281C164.515 227.222 163.084 225.79 163.084 224.024V221.015C163.084 219.249 164.515 217.817 166.281 217.817H172.488V227.222Z" fill="#1400FF"/>
<path d="M172.206 217.817H181.61V224.024C181.61 225.79 180.179 227.222 178.413 227.222H172.206V217.817Z" fill="#1400FF"/>
<path d="M218.1 217.817H208.695V227.222H218.1V217.817Z" fill="#1400FF"/>
<path d="M254.589 217.817H245.184V227.222H254.589V217.817Z" fill="#1400FF"/>
<path d="M263.711 217.817H254.306V227.222H263.711V217.817Z" fill="#1400FF"/>
<path d="M272.833 217.817H263.429V227.222H272.833V217.817Z" fill="#1400FF"/>
<path d="M108.632 226.939V236.344H102.426C100.66 236.344 99.2281 234.912 99.2281 233.146V226.939H108.632Z" fill="#1400FF"/>
<path d="M117.755 226.939H108.35V236.344H117.755V226.939Z" fill="#1400FF"/>
<path d="M117.473 236.344V230.137C117.473 228.371 118.904 226.939 120.67 226.939H123.679C125.445 226.939 126.877 228.371 126.877 230.137V236.344H117.473Z" fill="#1400FF"/>
<path d="M154.244 226.939V236.344H148.037C146.271 236.344 144.839 234.912 144.839 233.146V226.939H154.244Z" fill="#1400FF"/>
<path d="M153.962 236.344V226.939H160.169C161.934 226.939 163.366 228.371 163.366 230.137V236.344H153.962Z" fill="#1400FF"/>
<path d="M190.733 236.344H184.526C182.76 236.344 181.328 234.912 181.328 233.146V230.137C181.328 228.371 182.76 226.939 184.526 226.939H190.733V236.344Z" fill="#1400FF"/>
<path d="M199.855 226.939H190.451V236.344H199.855V226.939Z" fill="#1400FF"/>
<path d="M208.977 226.939H199.573V236.344H208.977V226.939Z" fill="#1400FF"/>
<path d="M218.1 226.939H208.695V236.344H218.1V226.939Z" fill="#1400FF"/>
<path d="M226.94 229.629V233.664C226.94 235.149 228.143 236.344 229.629 236.344H233.664C235.159 236.344 236.353 235.14 236.353 233.654V229.629C236.344 228.134 235.14 226.939 233.654 226.939H229.629C228.143 226.939 226.94 228.143 226.94 229.629Z" fill="#1400FF"/>
<path d="M254.589 226.939H245.184V236.344H254.589V226.939Z" fill="#1400FF"/>
<path d="M272.833 226.939V236.344H266.626C264.86 236.344 263.429 234.912 263.429 233.146V226.939H272.833Z" fill="#1400FF"/>
<path d="M272.551 236.344V226.939H278.758C280.524 226.939 281.955 228.371 281.955 230.137V236.344H272.551Z" fill="#1400FF"/>
<path d="M133.131 245.278V245.466H135.999V242.598H135.811C135.811 244.084 134.607 245.278 133.131 245.278Z" fill="#1400FF"/>
<path d="M135.717 245.466V239.259C135.717 237.493 137.149 236.061 138.915 236.061H141.924C143.69 236.061 145.121 237.493 145.121 239.259V245.466H135.717Z" fill="#1400FF"/>
<path d="M163.366 236.062V245.466H157.159C155.393 245.466 153.962 244.034 153.962 242.268V236.062H163.366Z" fill="#1400FF"/>
<path d="M172.488 236.062H163.084V245.466H172.488V236.062Z" fill="#1400FF"/>
<path d="M172.206 245.466V239.259C172.206 237.493 173.638 236.061 175.404 236.061H178.413C180.179 236.061 181.61 237.493 181.61 239.259V245.466H172.206Z" fill="#1400FF"/>
<path d="M208.977 236.062H199.573V245.466H208.977V236.062Z" fill="#1400FF"/>
<path d="M218.1 236.062H208.695V245.466H218.1V236.062Z" fill="#1400FF"/>
<path d="M242.598 245.278V245.466H245.466V242.598H245.278C245.278 244.084 244.074 245.278 242.598 245.278Z" fill="#1400FF"/>
<path d="M254.589 236.062H245.184V245.466H254.589V236.062Z" fill="#1400FF"/>
<path d="M254.306 245.466V239.259C254.306 237.493 255.738 236.061 257.504 236.061H260.513C262.279 236.061 263.711 237.493 263.711 239.259V245.466H254.306Z" fill="#1400FF"/>
<path d="M281.955 236.062H272.551V245.466H281.955V236.062Z" fill="#1400FF"/>
<path d="M99.2281 254.589V248.382C99.2281 246.616 100.66 245.184 102.426 245.184H105.435C107.201 245.184 108.632 246.616 108.632 248.382V254.589H99.2281Z" fill="#1400FF"/>
<path d="M126.877 254.589H120.67C118.904 254.589 117.473 253.157 117.473 251.391V248.382C117.473 246.616 118.904 245.184 120.67 245.184H126.877V254.589Z" fill="#1400FF"/>
<path d="M135.999 245.185H126.595V254.589H135.999V245.185Z" fill="#1400FF"/>
<path d="M145.121 245.185H135.717V254.589H145.121V245.185Z" fill="#1400FF"/>
<path d="M144.839 254.589V245.184H151.046C152.812 245.184 154.244 246.616 154.244 248.382V254.589H144.839Z" fill="#1400FF"/>
<path d="M172.488 245.185V251.391C172.488 253.157 171.057 254.589 169.291 254.589H166.281C164.515 254.589 163.084 253.157 163.084 251.391V245.185H172.488Z" fill="#1400FF"/>
<path d="M178.742 254.401V254.589H181.61V251.721H181.422C181.422 253.207 180.219 254.401 178.742 254.401Z" fill="#1400FF"/>
<path d="M181.328 254.589V248.382C181.328 246.616 182.76 245.184 184.526 245.184H187.535C189.301 245.184 190.733 246.616 190.733 248.382V254.589H181.328Z" fill="#1400FF"/>
<path d="M208.977 245.185V254.589H202.77C201.004 254.589 199.573 253.157 199.573 251.391V245.185H208.977Z" fill="#1400FF"/>
<path d="M218.1 245.185H208.695V254.589H218.1V245.185Z" fill="#1400FF"/>
<path d="M227.222 245.185H217.817V254.589H227.222V245.185Z" fill="#1400FF"/>
<path d="M236.344 245.185H226.94V254.589H236.344V245.185Z" fill="#1400FF"/>
<path d="M245.466 245.185H236.062V254.589H245.466V245.185Z" fill="#1400FF"/>
<path d="M245.184 245.185H254.589V251.391C254.589 253.157 253.157 254.589 251.391 254.589H245.184V245.185Z" fill="#1400FF"/>
<path d="M281.955 245.185H272.551V254.589H281.955V245.185Z" fill="#1400FF"/>
<path d="M108.632 254.307V263.711H102.426C100.66 263.711 99.2281 262.279 99.2281 260.514V254.307H108.632Z" fill="#1400FF"/>
<path d="M108.35 263.711V257.504C108.35 255.738 109.782 254.307 111.548 254.307H114.557C116.323 254.307 117.755 255.738 117.755 257.504V263.711H108.35Z" fill="#1400FF"/>
<path d="M154.244 254.307H144.839V263.711H154.244V254.307Z" fill="#1400FF"/>
<path d="M181.61 263.711H175.404C173.638 263.711 172.206 262.279 172.206 260.513V257.504C172.206 255.738 173.638 254.307 175.404 254.307H181.61V263.711Z" fill="#1400FF"/>
<path d="M190.733 254.307H181.328V263.711H190.733V254.307Z" fill="#1400FF"/>
<path d="M245.466 254.307H236.062V263.711H245.466V254.307Z" fill="#1400FF"/>
<path d="M269.965 263.523V263.711H272.833V260.843H272.645C272.645 262.329 271.441 263.523 269.965 263.523Z" fill="#1400FF"/>
<path d="M281.955 254.307H272.551V263.711H281.955V254.307Z" fill="#1400FF"/>
<path d="M126.877 272.833H120.67C118.904 272.833 117.473 271.401 117.473 269.636V266.626C117.473 264.86 118.904 263.429 120.67 263.429H126.877V272.833Z" fill="#1400FF"/>
<path d="M126.595 272.833V266.626C126.595 264.86 128.026 263.429 129.792 263.429H132.802C134.568 263.429 135.999 264.86 135.999 266.626V272.833H126.595Z" fill="#1400FF"/>
<path d="M154.244 263.429H144.839V272.833H154.244V263.429Z" fill="#1400FF"/>
<path d="M153.962 272.833V263.429H160.169C161.934 263.429 163.366 264.86 163.366 266.626V272.833H153.962Z" fill="#1400FF"/>
<path d="M190.733 263.429H181.328V272.833H190.733V263.429Z" fill="#1400FF"/>
<path d="M206.109 272.645V272.833H208.977V269.965H208.789C208.789 271.451 207.585 272.645 206.109 272.645Z" fill="#1400FF"/>
<path d="M218.1 272.833H208.695V266.626C208.695 264.86 210.127 263.429 211.893 263.429H218.1V272.833Z" fill="#1400FF"/>
<path d="M217.817 272.833V266.626C217.817 264.86 219.249 263.429 221.015 263.429H224.024C225.79 263.429 227.222 264.86 227.222 266.626V272.833H217.817Z" fill="#1400FF"/>
<path d="M245.466 263.429V272.833H239.259C237.493 272.833 236.062 271.402 236.062 269.636V263.429H245.466Z" fill="#1400FF"/>
<path d="M245.184 272.833V263.429H251.391C253.157 263.429 254.589 264.86 254.589 266.626V272.833H245.184Z" fill="#1400FF"/>
<path d="M272.833 272.833H263.429V266.626C263.429 264.86 264.86 263.429 266.626 263.429H272.833V272.833Z" fill="#1400FF"/>
<path d="M281.955 263.429H272.551V272.833H281.955V263.429Z" fill="#1400FF"/>
<path d="M281.673 272.833V263.429H287.88C289.646 263.429 291.078 264.86 291.078 266.626V272.833H281.673Z" fill="#1400FF"/>
<path d="M108.35 275.24V279.275C108.35 280.761 109.554 281.955 111.04 281.955H115.074C116.57 281.955 117.764 280.751 117.764 279.266V275.24C117.755 273.745 116.551 272.551 115.065 272.551H111.04C109.554 272.551 108.35 273.755 108.35 275.24Z" fill="#1400FF"/>
<path d="M142.253 281.767V281.955H145.121V279.087H144.933C144.933 280.573 143.73 281.767 142.253 281.767Z" fill="#1400FF"/>
<path d="M154.244 272.551H144.839V281.955H154.244V272.551Z" fill="#1400FF"/>
<path d="M153.962 272.551H163.366V278.758C163.366 280.524 161.934 281.955 160.169 281.955H153.962V272.551Z" fill="#1400FF"/>
<path d="M190.733 272.551H181.328V281.955H190.733V272.551Z" fill="#1400FF"/>
<path d="M208.977 281.955H199.573V275.748C199.573 273.982 201.004 272.551 202.77 272.551H208.977V281.955Z" fill="#1400FF"/>
<path d="M218.1 272.551H208.695V281.955H218.1V272.551Z" fill="#1400FF"/>
<path d="M254.589 272.551H245.184V281.955H254.589V272.551Z" fill="#1400FF"/>
<path d="M272.833 272.551V278.758C272.833 280.524 271.402 281.955 269.636 281.955H266.626C264.86 281.955 263.429 280.524 263.429 278.758V272.551H272.833Z" fill="#1400FF"/>
<path d="M291.078 272.551V278.758C291.078 280.524 289.646 281.955 287.88 281.955H284.871C283.105 281.955 281.673 280.524 281.673 278.758V272.551H291.078Z" fill="#1400FF"/>
<path d="M135.999 291.077H129.792C128.026 291.077 126.595 289.646 126.595 287.88V284.87C126.595 283.104 128.026 281.673 129.792 281.673H135.999V291.077Z" fill="#1400FF"/>
<path d="M145.121 281.673H135.717V291.077H145.121V281.673Z" fill="#1400FF"/>
<path d="M144.839 281.673H154.244V287.88C154.244 289.646 152.812 291.077 151.046 291.077H144.839V281.673Z" fill="#1400FF"/>
<path d="M190.733 281.673V287.88C190.733 289.646 189.301 291.077 187.535 291.077H184.526C182.76 291.077 181.328 289.646 181.328 287.88V281.673H190.733Z" fill="#1400FF"/>
<path d="M208.977 281.673V291.077H202.77C201.004 291.077 199.573 289.646 199.573 287.88V281.673H208.977Z" fill="#1400FF"/>
<path d="M208.695 281.673H218.1V287.88C218.1 289.646 216.668 291.077 214.902 291.077H208.695V281.673Z" fill="#1400FF"/>
<path d="M236.344 291.077H230.137C228.371 291.077 226.94 289.646 226.94 287.88V284.87C226.94 283.104 228.371 281.673 230.137 281.673H236.344V291.077Z" fill="#1400FF"/>
<path d="M245.466 281.673H236.062V291.077H245.466V281.673Z" fill="#1400FF"/>
<path d="M254.589 281.673H245.184V291.077H254.589V281.673Z" fill="#1400FF"/>
<path d="M254.306 291.077V284.87C254.306 283.104 255.738 281.673 257.504 281.673H260.513C262.279 281.673 263.711 283.104 263.711 284.87V291.077H254.306Z" fill="#1400FF"/>
<path d="M82.6765 69.259V49.0705C82.6765 40.1095 81.4575 37.923 80.9332 37.3975C80.4077 36.8732 78.2212 35.6542 69.259 35.6542H49.0717C40.1095 35.6542 37.923 36.8732 37.3987 37.3975C36.8744 37.923 35.6542 40.1095 35.6542 49.0705V69.259C35.6542 78.2212 36.8744 80.4077 37.3987 80.9332C37.923 81.4563 40.1095 82.6765 49.0717 82.6765H69.259C78.2212 82.6765 80.4077 81.4563 80.9332 80.9332C81.4575 80.4077 82.6765 78.2212 82.6765 69.259ZM69.259 26.25C87.6925 26.25 92.0807 30.6382 92.0807 49.0705C92.0807 67.504 92.0807 50.8268 92.0807 69.259C92.0807 87.6925 87.6925 92.0807 69.259 92.0807C50.8268 92.0807 67.504 92.0807 49.0717 92.0807C30.6382 92.0807 26.25 87.6925 26.25 69.259C26.25 50.8268 26.25 59.3646 26.25 49.0705C26.25 30.6382 30.6382 26.25 49.0717 26.25C67.504 26.25 50.8268 26.25 69.259 26.25ZM63.4911 45.0588C71.3915 45.0588 73.2719 46.9404 73.2719 54.8385C73.2719 62.7389 73.2719 55.5918 73.2719 63.4911C73.2719 71.3903 71.3915 73.2719 63.4911 73.2719C55.5918 73.2719 62.7389 73.2719 54.8397 73.2719C46.9404 73.2719 45.0588 71.3903 45.0588 63.4911C45.0588 55.5918 45.0588 59.2506 45.0588 54.8385C45.0588 46.9404 46.9404 45.0588 54.8397 45.0588C62.7389 45.0588 55.5918 45.0588 63.4911 45.0588Z" fill="#1400FF"/>
<path d="M281.297 69.259V49.0705C281.297 40.1095 280.078 37.923 279.554 37.3975C279.028 36.8732 276.842 35.6542 267.88 35.6542H247.692C238.73 35.6542 236.544 36.8732 236.019 37.3975C235.495 37.923 234.275 40.1095 234.275 49.0705V69.259C234.275 78.2212 235.495 80.4077 236.019 80.9332C236.544 81.4563 238.73 82.6765 247.692 82.6765H267.88C276.842 82.6765 279.028 81.4563 279.554 80.9332C280.078 80.4077 281.297 78.2212 281.297 69.259ZM267.88 26.25C286.313 26.25 290.701 30.6382 290.701 49.0705C290.701 67.504 290.701 50.8268 290.701 69.259C290.701 87.6925 286.313 92.0807 267.88 92.0807C249.447 92.0807 266.125 92.0807 247.692 92.0807C229.259 92.0807 224.871 87.6925 224.871 69.259C224.871 50.8268 224.871 59.3646 224.871 49.0705C224.871 30.6382 229.259 26.25 247.692 26.25C266.125 26.25 249.447 26.25 267.88 26.25ZM262.112 45.0588C270.012 45.0588 271.893 46.9404 271.893 54.8385C271.893 62.7389 271.893 55.5918 271.893 63.4911C271.893 71.3903 270.012 73.2719 262.112 73.2719C254.213 73.2719 261.36 73.2719 253.46 73.2719C245.561 73.2719 243.679 71.3903 243.679 63.4911C243.679 55.5918 243.679 59.2506 243.679 54.8385C243.679 46.9404 245.561 45.0588 253.46 45.0588C261.36 45.0588 254.213 45.0588 262.112 45.0588Z" fill="#1400FF"/>
<path d="M82.6765 267.88V247.692C82.6765 238.731 81.4575 236.544 80.9332 236.019C80.4077 235.494 78.2212 234.275 69.259 234.275H49.0717C40.1095 234.275 37.923 235.494 37.3987 236.019C36.8744 236.544 35.6542 238.731 35.6542 247.692V267.88C35.6542 276.842 36.8744 279.029 37.3987 279.554C37.923 280.077 40.1095 281.298 49.0717 281.298H69.259C78.2212 281.298 80.4077 280.077 80.9332 279.554C81.4575 279.029 82.6765 276.842 82.6765 267.88ZM69.259 224.871C87.6925 224.871 92.0807 229.259 92.0807 247.692C92.0807 266.125 92.0807 249.448 92.0807 267.88C92.0807 286.314 87.6925 290.702 69.259 290.702C50.8268 290.702 67.504 290.702 49.0717 290.702C30.6382 290.702 26.25 286.314 26.25 267.88C26.25 249.448 26.25 257.986 26.25 247.692C26.25 229.259 30.6382 224.871 49.0717 224.871C67.504 224.871 50.8268 224.871 69.259 224.871ZM63.4911 243.68C71.3915 243.68 73.2719 245.562 73.2719 253.46C73.2719 261.36 73.2719 254.213 73.2719 262.112C73.2719 270.011 71.3915 271.893 63.4911 271.893C55.5918 271.893 62.7389 271.893 54.8397 271.893C46.9404 271.893 45.0588 270.011 45.0588 262.112C45.0588 254.213 45.0588 257.872 45.0588 253.46C45.0588 245.562 46.9404 243.68 54.8397 243.68C62.7389 243.68 55.5918 243.68 63.4911 243.68Z" fill="#1400FF"/>
</g>
<defs>
<clipPath id="clip0_4983_18010">
<rect width="320" height="320" fill="white"/>
</clipPath>
</defs>
</svg>
